<?xml version="1.0" encoding="UTF-8" standalone="no"?>
<!DOCTYPE svg PUBLIC "-//W3C//DTD SVG 1.1//EN"
 "http://www.w3.org/Graphics/SVG/1.1/DTD/svg11.dtd">
<!-- Generated by graphviz version 2.43.0 (0)
 -->
<!-- Title: day2 Pages: 1 -->
<svg width="511pt" height="183pt"
 viewBox="0.00 0.00 511.00 183.00" xmlns="http://www.w3.org/2000/svg" xmlns:xlink="http://www.w3.org/1999/xlink">
<g id="graph0" class="graph" transform="scale(1 1) rotate(0) translate(4 179)">
<title>day2</title>
<polygon fill="white" stroke="transparent" points="-4,4 -4,-179 507,-179 507,4 -4,4"/>
<text text-anchor="middle" x="251.5" y="-159" font-family="DejaVu Sans" font-size="15.00">Day&#45;2 — unattended recovery &amp; restore rehearsal</text>
<!-- R -->
<g id="node1" class="node">
<title>R</title>
<path fill="#ffebe6" stroke="#de350b" d="M105.5,-94C105.5,-94 35.5,-94 35.5,-94 29.5,-94 23.5,-88 23.5,-82 23.5,-82 23.5,-68 23.5,-68 23.5,-62 29.5,-56 35.5,-56 35.5,-56 105.5,-56 105.5,-56 111.5,-56 117.5,-62 117.5,-68 117.5,-68 117.5,-82 117.5,-82 117.5,-88 111.5,-94 105.5,-94"/>
<text text-anchor="middle" x="70.5" y="-78.2" font-family="DejaVu Sans" font-size="11.00">Full restart /</text>
<text text-anchor="middle" x="70.5" y="-66.2" font-family="DejaVu Sans" font-size="11.00">node reboot</text>
</g>
<!-- AU -->
<g id="node2" class="node">
<title>AU</title>
<path fill="#fff0b3" stroke="#ff8b00" d="M309,-66C309,-66 201,-66 201,-66 195,-66 189,-60 189,-54 189,-54 189,-40 189,-40 189,-34 195,-28 201,-28 201,-28 309,-28 309,-28 315,-28 321,-34 321,-40 321,-40 321,-54 321,-54 321,-60 315,-66 309,-66"/>
<text text-anchor="middle" x="255" y="-50.2" font-family="DejaVu Sans" font-size="11.00">Transit auto&#45;unseal</text>
<text text-anchor="middle" x="255" y="-38.2" font-family="DejaVu Sans" font-size="11.00">(unattended)</text>
</g>
<!-- R&#45;&gt;AU -->
<g id="edge1" class="edge">
<title>R&#45;&gt;AU</title>
<path fill="none" stroke="#42526e" d="M117.55,-67.93C136.06,-65.09 157.9,-61.74 178.6,-58.57"/>
<polygon fill="#42526e" stroke="#42526e" points="179.31,-62 188.66,-57.02 178.25,-55.08 179.31,-62"/>
</g>
<!-- OK -->
<g id="node3" class="node">
<title>OK</title>
<path fill="#e3fcef" stroke="#00875a" d="M490.5,-65C490.5,-65 381.5,-65 381.5,-65 375.5,-65 369.5,-59 369.5,-53 369.5,-53 369.5,-41 369.5,-41 369.5,-35 375.5,-29 381.5,-29 381.5,-29 490.5,-29 490.5,-29 496.5,-29 502.5,-35 502.5,-41 502.5,-41 502.5,-53 502.5,-53 502.5,-59 496.5,-65 490.5,-65"/>
<text text-anchor="middle" x="436" y="-44.2" font-family="DejaVu Sans" font-size="11.00">voters 3/3 restored</text>
</g>
<!-- AU&#45;&gt;OK -->
<g id="edge2" class="edge">
<title>AU&#45;&gt;OK</title>
<path fill="none" stroke="#42526e" d="M321.13,-47C333.51,-47 346.57,-47 359.25,-47"/>
<polygon fill="#42526e" stroke="#42526e" points="359.32,-50.5 369.32,-47 359.32,-43.5 359.32,-50.5"/>
</g>
<!-- SNAP -->
<g id="node4" class="node">
<title>SNAP</title>
<path fill="#eae6ff" stroke="#5e4db2" d="M129,-150C129,-150 12,-150 12,-150 6,-150 0,-144 0,-138 0,-138 0,-124 0,-124 0,-118 6,-112 12,-112 12,-112 129,-112 129,-112 135,-112 141,-118 141,-124 141,-124 141,-138 141,-138 141,-144 135,-150 129,-150"/>
<text text-anchor="middle" x="70.5" y="-134.2" font-family="DejaVu Sans" font-size="11.00">Raft snapshot</text>
<text text-anchor="middle" x="70.5" y="-122.2" font-family="DejaVu Sans" font-size="11.00">(encrypted, off&#45;host)</text>
</g>
<!-- RES -->
<g id="node5" class="node">
<title>RES</title>
<path fill="#deebff" stroke="#0052cc" d="M321,-150C321,-150 189,-150 189,-150 183,-150 177,-144 177,-138 177,-138 177,-124 177,-124 177,-118 183,-112 189,-112 189,-112 321,-112 321,-112 327,-112 333,-118 333,-124 333,-124 333,-138 333,-138 333,-144 327,-150 321,-150"/>
<text text-anchor="middle" x="255" y="-134.2" font-family="DejaVu Sans" font-size="11.00">Restore rehearsal</text>
<text text-anchor="middle" x="255" y="-122.2" font-family="DejaVu Sans" font-size="11.00">(monthly, crit.11 / A10)</text>
</g>
<!-- SNAP&#45;&gt;RES -->
<g id="edge3" class="edge">
<title>SNAP&#45;&gt;RES</title>
<path fill="none" stroke="#42526e" d="M141.02,-131C149.41,-131 158.07,-131 166.69,-131"/>
<polygon fill="#42526e" stroke="#42526e" points="166.76,-134.5 176.76,-131 166.76,-127.5 166.76,-134.5"/>
</g>
<!-- FULL -->
<g id="node6" class="node">
<title>FULL</title>
<path fill="#e3fcef" stroke="#00875a" d="M491,-150C491,-150 381,-150 381,-150 375,-150 369,-144 369,-138 369,-138 369,-124 369,-124 369,-118 375,-112 381,-112 381,-112 491,-112 491,-112 497,-112 503,-118 503,-124 503,-124 503,-138 503,-138 503,-144 497,-150 491,-150"/>
<text text-anchor="middle" x="436" y="-134.2" font-family="DejaVu Sans" font-size="11.00">Full unseal verified,</text>
<text text-anchor="middle" x="436" y="-122.2" font-family="DejaVu Sans" font-size="11.00">not just FSM install</text>
</g>
<!-- RES&#45;&gt;FULL -->
<g id="edge4" class="edge">
<title>RES&#45;&gt;FULL</title>
<path fill="none" stroke="#42526e" d="M333.21,-131C341.69,-131 350.31,-131 358.78,-131"/>
<polygon fill="#42526e" stroke="#42526e" points="359,-134.5 369,-131 359,-127.5 359,-134.5"/>
</g>
<!-- TB -->
<g id="node7" class="node">
<title>TB</title>
<path fill="#eae6ff" stroke="#5e4db2" d="M127,-38C127,-38 14,-38 14,-38 8,-38 2,-32 2,-26 2,-26 2,-12 2,-12 2,-6 8,0 14,0 14,0 127,0 127,0 133,0 139,-6 139,-12 139,-12 139,-26 139,-26 139,-32 133,-38 127,-38"/>
<text text-anchor="middle" x="70.5" y="-22.2" font-family="DejaVu Sans" font-size="11.00">Transit&#45;Vault backup</text>
<text text-anchor="middle" x="70.5" y="-10.2" font-family="DejaVu Sans" font-size="11.00">+ verified custody</text>
</g>
<!-- TB&#45;&gt;AU -->
<g id="edge5" class="edge">
<title>TB&#45;&gt;AU</title>
<path fill="none" stroke="#ff8b00" stroke-dasharray="5,2" d="M139.2,-29.39C152.13,-31.37 165.74,-33.46 178.89,-35.48"/>
<polygon fill="#ff8b00" stroke="#ff8b00" points="178.42,-38.95 188.84,-37 179.48,-32.03 178.42,-38.95"/>
</g>
</g>
</svg>
