<svg width="680" viewBox="0 0 680 860" xmlns="http://www.w3.org/2000/svg" font-family="sans-serif">
<defs>
<marker id="arrow" viewBox="0 0 10 10" refX="8" refY="5" markerWidth="6" markerHeight="6" orient="auto-start-reverse">
<path d="M2 1L8 5L2 9" fill="none" stroke="#888780" stroke-width="1.5" stroke-linecap="round" stroke-linejoin="round"/>
</marker>
</defs>

<!-- User API -->
<rect x="160" y="20" width="360" height="56" rx="12" fill="#E6F1FB" stroke="#185FA5" stroke-width="0.5"/>
<text x="340" y="44" text-anchor="middle" font-size="14" font-weight="500" fill="#042C53">User API (kubectl apply)</text>
<text x="340" y="62" text-anchor="middle" font-size="12" fill="#0C447C">KubeVirtClusterClaim · OpenKubesVMClaim</text>

<line x1="340" y1="76" x2="340" y2="104" stroke="#888780" stroke-width="1" marker-end="url(#arrow)"/>

<!-- Crossplane -->
<rect x="40" y="104" width="600" height="66" rx="12" fill="#E1F5EE" stroke="#1D9E75" stroke-width="0.5"/>
<text x="340" y="128" text-anchor="middle" font-size="14" font-weight="500" fill="#085041">Crossplane v2.2 — composition pipeline</text>
<text x="340" y="148" text-anchor="middle" font-size="12" fill="#0F6E56">XRD · Composition · function-patch-and-transform · function-go-templating</text>

<line x1="200" y1="170" x2="155" y2="198" stroke="#888780" stroke-width="1" marker-end="url(#arrow)"/>
<line x1="480" y1="170" x2="525" y2="198" stroke="#888780" stroke-width="1" marker-end="url(#arrow)"/>

<!-- KubeVirtCluster + OpenKubesVM -->
<rect x="40" y="198" width="270" height="76" rx="12" fill="#E6F1FB" stroke="#185FA5" stroke-width="0.5"/>
<text x="175" y="222" text-anchor="middle" font-size="14" font-weight="500" fill="#042C53">KubeVirtCluster</text>
<text x="175" y="240" text-anchor="middle" font-size="12" fill="#0C447C">deploy-args ConfigMap</text>
<text x="175" y="256" text-anchor="middle" font-size="12" fill="#0C447C">deploy Job · cleanup Job</text>
<rect x="370" y="198" width="270" height="76" rx="12" fill="#FAECE7" stroke="#993C1D" stroke-width="0.5"/>
<text x="505" y="222" text-anchor="middle" font-size="14" font-weight="500" fill="#4A1B0C">OpenKubesVM</text>
<text x="505" y="240" text-anchor="middle" font-size="12" fill="#712B13">CDI DataVolume (Ubuntu)</text>
<text x="505" y="256" text-anchor="middle" font-size="12" fill="#712B13">VirtualMachine · LB Service</text>

<line x1="175" y1="274" x2="175" y2="302" stroke="#888780" stroke-width="1" marker-end="url(#arrow)"/>
<line x1="505" y1="274" x2="505" y2="302" stroke="#888780" stroke-width="1" marker-end="url(#arrow)"/>

<!-- capi-platform-runner + provider-kubernetes -->
<rect x="40" y="302" width="270" height="66" rx="12" fill="#FAEEDA" stroke="#BA7517" stroke-width="0.5"/>
<text x="175" y="326" text-anchor="middle" font-size="14" font-weight="500" fill="#633806">capi-platform-runner</text>
<text x="175" y="344" text-anchor="middle" font-size="12" fill="#854F0B">crossplane-deploy.sh</text>
<text x="175" y="360" text-anchor="middle" font-size="12" fill="#854F0B">crossplane-upgrade.sh (rolling)</text>
<rect x="370" y="302" width="270" height="66" rx="12" fill="#F1EFE8" stroke="#888780" stroke-width="0.5"/>
<text x="505" y="326" text-anchor="middle" font-size="14" font-weight="500" fill="#444441">provider-kubernetes v0.17</text>
<text x="505" y="344" text-anchor="middle" font-size="12" fill="#5F5E5A">ProviderConfig: in-cluster</text>
<text x="505" y="360" text-anchor="middle" font-size="12" fill="#5F5E5A">ProviderConfig: infra-cluster</text>

<line x1="175" y1="368" x2="175" y2="396" stroke="#888780" stroke-width="1" marker-end="url(#arrow)"/>
<line x1="505" y1="368" x2="505" y2="396" stroke="#888780" stroke-width="1" marker-end="url(#arrow)"/>
<line x1="175" y1="396" x2="505" y2="396" stroke="#888780" stroke-width="0.5"/>
<line x1="260" y1="396" x2="260" y2="424" stroke="#888780" stroke-width="1" marker-end="url(#arrow)"/>
<line x1="420" y1="396" x2="420" y2="424" stroke="#888780" stroke-width="1" marker-end="url(#arrow)"/>

<!-- CAPI + KubeVirt infra -->
<rect x="40" y="424" width="270" height="66" rx="12" fill="#EEEDFE" stroke="#7F77DD" stroke-width="0.5"/>
<text x="175" y="448" text-anchor="middle" font-size="14" font-weight="500" fill="#3C3489">Cluster API (CAPI)</text>
<text x="175" y="466" text-anchor="middle" font-size="12" fill="#534AB7">Cluster · KubeadmControlPlane</text>
<text x="175" y="482" text-anchor="middle" font-size="12" fill="#534AB7">MachineDeployment</text>
<rect x="370" y="424" width="270" height="66" rx="12" fill="#EEEDFE" stroke="#7F77DD" stroke-width="0.5"/>
<text x="505" y="448" text-anchor="middle" font-size="14" font-weight="500" fill="#3C3489">KubeVirt infra</text>
<text x="505" y="466" text-anchor="middle" font-size="12" fill="#534AB7">KubevirtCluster · VirtualMachine</text>
<text x="505" y="482" text-anchor="middle" font-size="12" fill="#534AB7">CDI DataVolume · Multus NAD</text>

<line x1="310" y1="457" x2="368" y2="457" stroke="#7F77DD" stroke-width="1" marker-end="url(#arrow)"/>
<text x="339" y="448" text-anchor="middle" font-size="11" fill="#534AB7">CAPK</text>

<line x1="175" y1="490" x2="175" y2="518" stroke="#888780" stroke-width="1" marker-end="url(#arrow)"/>
<line x1="505" y1="490" x2="505" y2="518" stroke="#888780" stroke-width="1" marker-end="url(#arrow)"/>
<line x1="175" y1="518" x2="505" y2="518" stroke="#888780" stroke-width="0.5"/>
<line x1="340" y1="518" x2="340" y2="546" stroke="#888780" stroke-width="1" marker-end="url(#arrow)"/>

<!-- Workload clusters -->
<rect x="40" y="546" width="600" height="66" rx="12" fill="#E1F5EE" stroke="#1D9E75" stroke-width="0.5"/>
<text x="340" y="570" text-anchor="middle" font-size="14" font-weight="500" fill="#085041">Workload clusters (ok1, ok2 …)</text>
<text x="340" y="588" text-anchor="middle" font-size="12" fill="#0F6E56">Kubernetes v1.34+ · Calico / Cilium · MetalLB</text>

<line x1="340" y1="612" x2="340" y2="640" stroke="#888780" stroke-width="1" marker-end="url(#arrow)"/>

<!-- Add-ons -->
<rect x="40" y="640" width="600" height="66" rx="12" fill="#F1EFE8" stroke="#888780" stroke-width="0.5"/>
<text x="340" y="664" text-anchor="middle" font-size="14" font-weight="500" fill="#444441">Add-ons &amp; ingress</text>
<text x="340" y="682" text-anchor="middle" font-size="12" fill="#5F5E5A">Traefik · cert-manager (Let's Encrypt) · Headlamp UI · MetalLB INFRA LB</text>

<line x1="340" y1="706" x2="340" y2="734" stroke="#888780" stroke-width="1" marker-end="url(#arrow)"/>

<!-- Bare-metal RKE2 -->
<rect x="40" y="734" width="600" height="80" rx="12" fill="#EEEDFE" stroke="#7F77DD" stroke-width="0.5"/>
<text x="340" y="758" text-anchor="middle" font-size="14" font-weight="500" fill="#3C3489">Bare-metal RKE2 management cluster</text>
<text x="340" y="776" text-anchor="middle" font-size="12" fill="#534AB7">Control-plane node · GPU worker · WireGuard VPN</text>
<text x="340" y="794" text-anchor="middle" font-size="12" fill="#534AB7">vSwitch VLAN · Cilium CNI · Multus</text>
</svg>
