<svg width="680" viewBox="0 0 680 580" xmlns="http://www.w3.org/2000/svg" font-family="sans-serif">
<defs>
<marker id="arrow" viewBox="0 0 10 10" refX="8" refY="5" markerWidth="6" markerHeight="6" orient="auto-start-reverse">
<path d="M2 1L8 5L2 9" fill="none" stroke="#888780" stroke-width="1.5" stroke-linecap="round" stroke-linejoin="round"/>
</marker>
</defs>

<!-- RKE2 host cluster -->
<rect x="40" y="20" width="600" height="120" rx="12" fill="#EEEDFE" stroke="#7F77DD" stroke-width="0.5"/>
<text x="340" y="50" text-anchor="middle" font-size="14" font-weight="500" fill="#3C3489">RKE2 host cluster</text>
<text x="340" y="68" text-anchor="middle" font-size="12" fill="#534AB7">KubeVirt + CDI + MetalLB running on bare-metal</text>
<rect x="60" y="76" width="170" height="52" rx="8" fill="#CECBF6" stroke="#7F77DD" stroke-width="0.5"/>
<text x="145" y="98" text-anchor="middle" font-size="14" font-weight="500" fill="#3C3489">mgmt-vm-1</text>
<text x="145" y="114" text-anchor="middle" font-size="12" fill="#534AB7">control-plane</text>
<text x="145" y="128" text-anchor="middle" font-size="12" fill="#534AB7">MetalLB IP .200</text>
<rect x="255" y="76" width="170" height="52" rx="8" fill="#CECBF6" stroke="#7F77DD" stroke-width="0.5"/>
<text x="340" y="98" text-anchor="middle" font-size="14" font-weight="500" fill="#3C3489">mgmt-vm-2</text>
<text x="340" y="114" text-anchor="middle" font-size="12" fill="#534AB7">worker</text>
<text x="340" y="128" text-anchor="middle" font-size="12" fill="#534AB7">MetalLB IP .201</text>
<rect x="450" y="76" width="170" height="52" rx="8" fill="#CECBF6" stroke="#7F77DD" stroke-width="0.5"/>
<text x="535" y="98" text-anchor="middle" font-size="14" font-weight="500" fill="#3C3489">mgmt-vm-3</text>
<text x="535" y="114" text-anchor="middle" font-size="12" fill="#534AB7">worker</text>
<text x="535" y="128" text-anchor="middle" font-size="12" fill="#534AB7">MetalLB IP .202</text>

<line x1="340" y1="140" x2="340" y2="168" stroke="#888780" stroke-width="1" marker-end="url(#arrow)"/>

<!-- k3s -->
<rect x="40" y="168" width="600" height="56" rx="12" fill="#FAECE7" stroke="#993C1D" stroke-width="0.5"/>
<text x="340" y="191" text-anchor="middle" font-size="14" font-weight="500" fill="#4A1B0C">k3s management cluster</text>
<text x="340" y="209" text-anchor="middle" font-size="12" fill="#712B13">Kubernetes v1.35 · 3-node HA · Ubuntu 24.04 LTS</text>

<line x1="340" y1="224" x2="340" y2="252" stroke="#888780" stroke-width="1" marker-end="url(#arrow)"/>

<!-- Crossplane + CAPI -->
<rect x="40" y="252" width="290" height="56" rx="12" fill="#E1F5EE" stroke="#1D9E75" stroke-width="0.5"/>
<text x="185" y="275" text-anchor="middle" font-size="14" font-weight="500" fill="#085041">Crossplane v2.2</text>
<text x="185" y="293" text-anchor="middle" font-size="12" fill="#0F6E56">XRD · Composition · Functions</text>
<rect x="350" y="252" width="290" height="56" rx="12" fill="#E1F5EE" stroke="#1D9E75" stroke-width="0.5"/>
<text x="495" y="275" text-anchor="middle" font-size="14" font-weight="500" fill="#085041">Cluster API (CAPI)</text>
<text x="495" y="293" text-anchor="middle" font-size="12" fill="#0F6E56">CAPK · KubeadmControlPlane</text>

<line x1="185" y1="308" x2="185" y2="336" stroke="#888780" stroke-width="1" marker-end="url(#arrow)"/>
<line x1="495" y1="308" x2="495" y2="336" stroke="#888780" stroke-width="1" marker-end="url(#arrow)"/>
<line x1="185" y1="336" x2="495" y2="336" stroke="#888780" stroke-width="0.5"/>
<line x1="340" y1="336" x2="340" y2="364" stroke="#888780" stroke-width="1" marker-end="url(#arrow)"/>

<!-- Workload automation -->
<rect x="40" y="364" width="600" height="56" rx="12" fill="#FAEEDA" stroke="#BA7517" stroke-width="0.5"/>
<text x="340" y="387" text-anchor="middle" font-size="14" font-weight="500" fill="#633806">Workload cluster automation</text>
<text x="340" y="405" text-anchor="middle" font-size="12" fill="#854F0B">KubeVirtCluster · MachineDeployment · provider-kubernetes</text>

<line x1="340" y1="420" x2="340" y2="448" stroke="#888780" stroke-width="1" marker-end="url(#arrow)"/>

<!-- Workload clusters -->
<rect x="40" y="448" width="600" height="56" rx="12" fill="#FAECE7" stroke="#993C1D" stroke-width="0.5"/>
<text x="340" y="471" text-anchor="middle" font-size="14" font-weight="500" fill="#4A1B0C">Workload clusters (ok1, ok2 …)</text>
<text x="340" y="489" text-anchor="middle" font-size="12" fill="#712B13">Kubernetes v1.34+ · Cilium/Calico · MetalLB · Traefik</text>

<text x="40" y="530" font-size="11" fill="#888780">kubectl access: KUBECONFIG ~/.kube/mgmt.yaml · API via host-node socat proxy</text>
<text x="40" y="548" font-size="11" fill="#888780">Makefile: make install · make kubeconfig · make check · make reset</text>
</svg>
