<svg width="680" viewBox="0 0 680 720" xmlns="http://www.w3.org/2000/svg" font-family="sans-serif">
<defs>
<marker id="arrow" viewBox="0 0 10 10" refX="8" refY="5" markerWidth="6" markerHeight="6" orient="auto-start-reverse">
<path d="M2 1L8 5L2 9" fill="none" stroke="#888780" stroke-width="1.5" stroke-linecap="round" stroke-linejoin="round"/>
</marker>
</defs>

<!-- Bare-metal nodes -->
<rect x="40" y="20" width="600" height="110" rx="12" fill="#F1EFE8" stroke="#888780" stroke-width="0.5"/>
<text x="340" y="50" text-anchor="middle" font-size="14" font-weight="500" fill="#444441">Bare-metal nodes</text>
<text x="340" y="68" text-anchor="middle" font-size="12" fill="#5F5E5A">Layer-2 network · shared VLAN · private IP range</text>
<rect x="60" y="76" width="170" height="44" rx="8" fill="#D3D1C7" stroke="#888780" stroke-width="0.5"/>
<text x="145" y="95" text-anchor="middle" font-size="14" font-weight="500" fill="#444441">Control-plane node</text>
<text x="145" y="111" text-anchor="middle" font-size="12" fill="#5F5E5A">high-memory server</text>
<rect x="255" y="76" width="170" height="44" rx="8" fill="#D3D1C7" stroke="#888780" stroke-width="0.5"/>
<text x="340" y="95" text-anchor="middle" font-size="14" font-weight="500" fill="#444441">Worker node</text>
<text x="340" y="111" text-anchor="middle" font-size="12" fill="#5F5E5A">GPU-equipped server</text>
<rect x="450" y="76" width="170" height="44" rx="8" fill="#D3D1C7" stroke="#888780" stroke-width="0.5"/>
<text x="535" y="95" text-anchor="middle" font-size="14" font-weight="500" fill="#444441">VPN gateway</text>
<text x="535" y="111" text-anchor="middle" font-size="12" fill="#5F5E5A">WireGuard · public IP</text>

<line x1="340" y1="130" x2="340" y2="158" stroke="#888780" stroke-width="1" marker-end="url(#arrow)"/>

<!-- RKE2 -->
<rect x="40" y="158" width="600" height="56" rx="12" fill="#EEEDFE" stroke="#7F77DD" stroke-width="0.5"/>
<text x="340" y="181" text-anchor="middle" font-size="14" font-weight="500" fill="#3C3489">RKE2 host cluster</text>
<text x="340" y="199" text-anchor="middle" font-size="12" fill="#534AB7">control-plane + etcd · worker · Kubernetes v1.35</text>

<line x1="340" y1="214" x2="340" y2="242" stroke="#888780" stroke-width="1" marker-end="url(#arrow)"/>

<!-- Cilium -->
<rect x="40" y="242" width="600" height="56" rx="12" fill="#E1F5EE" stroke="#1D9E75" stroke-width="0.5"/>
<text x="340" y="265" text-anchor="middle" font-size="14" font-weight="500" fill="#085041">Cilium CNI</text>
<text x="340" y="283" text-anchor="middle" font-size="12" fill="#0F6E56">Pod network · eBPF dataplane · NetworkPolicy</text>

<line x1="340" y1="298" x2="340" y2="326" stroke="#888780" stroke-width="1" marker-end="url(#arrow)"/>

<!-- KubeVirt + MetalLB -->
<rect x="40" y="326" width="290" height="56" rx="12" fill="#EEEDFE" stroke="#7F77DD" stroke-width="0.5"/>
<text x="185" y="349" text-anchor="middle" font-size="14" font-weight="500" fill="#3C3489">KubeVirt</text>
<text x="185" y="367" text-anchor="middle" font-size="12" fill="#534AB7">VM lifecycle · nested virt</text>
<rect x="350" y="326" width="290" height="56" rx="12" fill="#EEEDFE" stroke="#7F77DD" stroke-width="0.5"/>
<text x="495" y="349" text-anchor="middle" font-size="14" font-weight="500" fill="#3C3489">MetalLB</text>
<text x="495" y="367" text-anchor="middle" font-size="12" fill="#534AB7">L2 LoadBalancer · IP pool</text>

<line x1="185" y1="382" x2="185" y2="410" stroke="#888780" stroke-width="1" marker-end="url(#arrow)"/>
<line x1="495" y1="382" x2="495" y2="410" stroke="#888780" stroke-width="1" marker-end="url(#arrow)"/>
<line x1="185" y1="410" x2="495" y2="410" stroke="#888780" stroke-width="0.5"/>
<line x1="340" y1="410" x2="340" y2="438" stroke="#888780" stroke-width="1" marker-end="url(#arrow)"/>

<!-- CDI -->
<rect x="40" y="438" width="600" height="56" rx="12" fill="#E1F5EE" stroke="#1D9E75" stroke-width="0.5"/>
<text x="340" y="461" text-anchor="middle" font-size="14" font-weight="500" fill="#085041">CDI · local-path-provisioner</text>
<text x="340" y="479" text-anchor="middle" font-size="12" fill="#0F6E56">VM image import · local storage for VMs</text>

<line x1="340" y1="494" x2="340" y2="522" stroke="#888780" stroke-width="1" marker-end="url(#arrow)"/>

<!-- socat -->
<rect x="40" y="522" width="600" height="56" rx="12" fill="#FAEEDA" stroke="#BA7517" stroke-width="0.5"/>
<text x="340" y="545" text-anchor="middle" font-size="14" font-weight="500" fill="#633806">API proxy (socat)</text>
<text x="340" y="563" text-anchor="middle" font-size="12" fill="#854F0B">Permanent kubectl access · host-node port forward</text>

<line x1="340" y1="578" x2="340" y2="606" stroke="#888780" stroke-width="1" marker-end="url(#arrow)"/>

<!-- Management cluster -->
<rect x="40" y="606" width="600" height="56" rx="12" fill="#FAECE7" stroke="#993C1D" stroke-width="0.5"/>
<text x="340" y="629" text-anchor="middle" font-size="14" font-weight="500" fill="#4A1B0C">Management cluster (k3s)</text>
<text x="340" y="647" text-anchor="middle" font-size="12" fill="#712B13">3 KubeVirt VMs · MetalLB IPs · runs CAPI + Crossplane</text>

<text x="40" y="690" font-size="11" fill="#888780">Automation: Ansible role · Makefile targets (deploy, install, kubeconfig, check, reset)</text>
</svg>
