<svg width="680" viewBox="0 0 680 620" xmlns="http://www.w3.org/2000/svg" font-family="sans-serif">
<defs>
<marker id="arrow" viewBox="0 0 10 10" refX="8" refY="5" markerWidth="6" markerHeight="6" orient="auto-start-reverse">
<path d="M2 1L8 5L2 9" fill="none" stroke="#888780" stroke-width="1.5" stroke-linecap="round" stroke-linejoin="round"/>
</marker>
</defs>

<!-- Workstation -->
<rect x="220" y="20" width="240" height="52" rx="12" fill="#E6F1FB" stroke="#185FA5" stroke-width="0.5"/>
<text x="340" y="42" text-anchor="middle" font-size="14" font-weight="500" fill="#042C53">Developer workstation</text>
<text x="340" y="58" text-anchor="middle" font-size="12" fill="#0C447C">WireGuard client · kubectl · SSH</text>

<text x="340" y="94" text-anchor="middle" font-size="12" fill="#5F5E5A">WireGuard tunnel (UDP)</text>
<line x1="340" y1="72" x2="340" y2="114" stroke="#378ADD" stroke-width="1" marker-end="url(#arrow)"/>
<line x1="340" y1="172" x2="340" y2="152" stroke="#378ADD" stroke-width="1" marker-end="url(#arrow)"/>

<!-- VPN gateway -->
<rect x="160" y="114" width="360" height="52" rx="12" fill="#FAEEDA" stroke="#BA7517" stroke-width="0.5"/>
<text x="340" y="136" text-anchor="middle" font-size="14" font-weight="500" fill="#633806">VPN gateway node</text>
<text x="340" y="152" text-anchor="middle" font-size="12" fill="#854F0B">WireGuard server · iptables MASQUERADE · public IP</text>

<!-- VLAN separator -->
<rect x="40" y="194" width="600" height="2" rx="1" fill="#D3D1C7"/>
<text x="340" y="216" text-anchor="middle" font-size="12" fill="#888780">Private VLAN · Layer-2 · 10.x.x.0/24</text>

<line x1="220" y1="172" x2="155" y2="238" stroke="#888780" stroke-width="1" marker-end="url(#arrow)"/>
<line x1="460" y1="172" x2="525" y2="238" stroke="#888780" stroke-width="1" marker-end="url(#arrow)"/>

<!-- Bare-metal nodes -->
<rect x="40" y="238" width="270" height="66" rx="12" fill="#EEEDFE" stroke="#7F77DD" stroke-width="0.5"/>
<text x="175" y="260" text-anchor="middle" font-size="14" font-weight="500" fill="#3C3489">Control-plane node</text>
<text x="175" y="278" text-anchor="middle" font-size="12" fill="#534AB7">RKE2 server · etcd</text>
<text x="175" y="294" text-anchor="middle" font-size="12" fill="#534AB7">socat proxy → mgmt API</text>
<rect x="370" y="238" width="270" height="66" rx="12" fill="#EEEDFE" stroke="#7F77DD" stroke-width="0.5"/>
<text x="505" y="260" text-anchor="middle" font-size="14" font-weight="500" fill="#3C3489">Worker node</text>
<text x="505" y="278" text-anchor="middle" font-size="12" fill="#534AB7">RKE2 agent · GPU</text>
<text x="505" y="294" text-anchor="middle" font-size="12" fill="#534AB7">KubeVirt workloads</text>

<line x1="175" y1="304" x2="175" y2="332" stroke="#7F77DD" stroke-width="1" marker-end="url(#arrow)"/>
<line x1="505" y1="304" x2="505" y2="332" stroke="#7F77DD" stroke-width="1" marker-end="url(#arrow)"/>

<!-- Cilium pod network -->
<rect x="40" y="332" width="600" height="52" rx="12" fill="#E1F5EE" stroke="#1D9E75" stroke-width="0.5"/>
<text x="340" y="354" text-anchor="middle" font-size="14" font-weight="500" fill="#085041">Cilium pod network</text>
<text x="340" y="372" text-anchor="middle" font-size="12" fill="#0F6E56">10.44.0.0/16 · KubeVirt VMs run inside this network</text>

<line x1="175" y1="384" x2="175" y2="412" stroke="#1D9E75" stroke-width="1" marker-end="url(#arrow)"/>
<line x1="340" y1="384" x2="340" y2="412" stroke="#1D9E75" stroke-width="1" marker-end="url(#arrow)"/>
<line x1="505" y1="384" x2="505" y2="412" stroke="#1D9E75" stroke-width="1" marker-end="url(#arrow)"/>

<!-- Management VMs -->
<rect x="40" y="412" width="176" height="52" rx="12" fill="#FAECE7" stroke="#993C1D" stroke-width="0.5"/>
<text x="128" y="434" text-anchor="middle" font-size="14" font-weight="500" fill="#4A1B0C">mgmt-vm-1</text>
<text x="128" y="450" text-anchor="middle" font-size="12" fill="#712B13">control-plane · .200</text>
<rect x="252" y="412" width="176" height="52" rx="12" fill="#FAECE7" stroke="#993C1D" stroke-width="0.5"/>
<text x="340" y="434" text-anchor="middle" font-size="14" font-weight="500" fill="#4A1B0C">mgmt-vm-2</text>
<text x="340" y="450" text-anchor="middle" font-size="12" fill="#712B13">worker · .201</text>
<rect x="464" y="412" width="176" height="52" rx="12" fill="#FAECE7" stroke="#993C1D" stroke-width="0.5"/>
<text x="552" y="434" text-anchor="middle" font-size="14" font-weight="500" fill="#4A1B0C">mgmt-vm-3</text>
<text x="552" y="450" text-anchor="middle" font-size="12" fill="#712B13">worker · .202</text>

<line x1="340" y1="464" x2="340" y2="492" stroke="#993C1D" stroke-width="1" marker-end="url(#arrow)"/>

<!-- Mgmt cluster API -->
<rect x="160" y="492" width="360" height="52" rx="12" fill="#FAECE7" stroke="#993C1D" stroke-width="0.5"/>
<text x="340" y="514" text-anchor="middle" font-size="14" font-weight="500" fill="#4A1B0C">Management cluster API</text>
<text x="340" y="532" text-anchor="middle" font-size="12" fill="#712B13">k3s · reachable via control-plane socat proxy</text>

<text x="40" y="574" font-size="11" fill="#888780">kubectl path: workstation → WireGuard → VPN MASQUERADE → socat proxy → k3s API</text>
<text x="40" y="590" font-size="11" fill="#888780">SSH path: workstation → VPN gateway → Jump host → mgmt VM (ubuntu user)</text>
</svg>
